<?xml version="1.0" standalone="no"?>
<!DOCTYPE svg PUBLIC "-//W3C//DTD SVG 20010904//EN"
 "http://www.w3.org/TR/2001/REC-SVG-20010904/DTD/svg10.dtd">
<svg version="1.0" xmlns="http://www.w3.org/2000/svg"
 width="290.000000pt" height="290.000000pt" viewBox="0 0 290.000000 290.000000"
 preserveAspectRatio="xMidYMid meet">
<metadata>
Created by potrace 1.14, written by Peter Selinger 2001-2017
</metadata>
<g transform="translate(0.000000,290.000000) scale(0.100000,-0.100000)"
fill="#000000" stroke="none">
<path d="M1986 2150 c-43 -22 -83 -40 -89 -40 -6 0 -21 10 -34 22 l-23 22 -64
-21 c-160 -54 -555 -245 -564 -273 -3 -10 3 -8 19 7 27 25 60 39 110 47 19 3
45 8 58 11 36 7 69 -4 76 -26 4 -11 6 -47 6 -79 0 -60 5 -70 26 -49 15 15 82
18 118 6 33 -11 85 -60 85 -79 0 -6 13 1 29 16 16 15 35 28 42 29 8 2 19 5 24
9 6 3 35 13 65 21 55 14 91 10 104 -12 5 -7 15 -6 30 4 27 18 99 22 136 7 56
-22 90 -82 92 -163 1 -49 9 -58 37 -40 10 7 12 27 9 88 -5 69 -9 83 -32 106
-14 14 -26 33 -26 41 0 51 61 97 145 111 87 15 104 14 127 -4 21 -18 22 -25
20 -127 l-3 -108 33 35 c60 65 132 84 241 65 45 -8 49 -7 45 10 -2 11 -21 28
-42 39 -22 11 -41 26 -43 32 -2 6 12 23 31 38 20 15 36 36 36 46 0 20 -64 89
-83 89 -7 0 -36 -9 -65 -20 l-54 -20 -29 31 c-16 17 -29 35 -29 41 0 9 -32 6
-78 -8 -18 -5 -30 2 -62 37 -22 24 -40 47 -40 50 0 21 -38 14 -99 -16 -38 -19
-76 -35 -84 -35 -8 0 -34 23 -57 50 -23 28 -47 50 -53 50 -7 0 -47 -18 -91
-40z"/>
<path d="M831 1919 c-63 -13 -96 -78 -58 -116 36 -36 129 -31 176 9 18 15 21
16 29 2 13 -24 79 -42 119 -34 40 9 82 35 90 56 9 24 -6 63 -29 75 -45 24
-148 9 -170 -25 -5 -7 -15 -3 -30 11 -26 24 -77 33 -127 22z"/>
<path d="M212 1909 c-40 -8 -72 -35 -72 -62 0 -10 11 -32 25 -48 24 -29 24
-33 22 -179 -2 -141 -3 -150 -26 -174 -21 -23 -23 -28 -11 -55 9 -23 21 -32
49 -37 51 -10 98 -11 161 -2 83 11 110 58 59 104 -10 9 -19 29 -19 43 l0 26
23 -25 c12 -14 40 -47 62 -75 59 -74 59 -74 162 -71 81 2 96 5 117 25 21 20
25 21 33 7 12 -21 81 -44 118 -39 17 2 42 10 57 17 22 12 28 11 42 -2 21 -21
107 -17 164 8 27 12 48 17 51 11 27 -43 251 -43 251 1 0 5 13 -1 29 -13 24
-18 43 -22 99 -21 38 0 85 7 103 15 30 12 37 12 57 -1 35 -23 166 -20 201 5
25 18 27 18 44 1 10 -10 33 -18 55 -19 20 -1 44 -2 52 -3 33 -3 105 15 122 31
10 9 18 11 18 6 0 -25 91 -40 202 -34 30 1 68 36 68 62 0 12 8 9 33 -15 42
-39 91 -55 156 -51 116 8 206 105 145 156 -19 16 -18 26 5 32 26 6 37 64 21
111 -6 19 -27 51 -45 69 -108 108 -306 46 -344 -108 -8 -31 -10 -6 -9 115 0
85 0 160 -1 167 -2 20 -36 24 -107 13 -128 -20 -178 -79 -117 -136 27 -25 27
-26 27 -160 0 -121 -2 -136 -20 -155 -20 -19 -21 -19 -37 -1 -13 14 -18 44
-22 121 -5 115 -20 153 -70 181 -42 23 -108 19 -145 -8 -16 -13 -30 -18 -30
-13 0 5 -7 17 -16 25 -17 18 -39 16 -117 -10 -101 -33 -125 -65 -85 -113 22
-25 24 -36 21 -102 -5 -83 -21 -113 -47 -87 -11 12 -15 41 -17 114 -2 145 -31
197 -114 211 -45 7 -76 -1 -108 -31 l-26 -24 3 76 c4 98 -5 122 -41 122 -52 0
-167 -38 -185 -60 -23 -29 -23 -33 8 -69 26 -31 26 -33 22 -170 -3 -156 -13
-186 -50 -149 -19 19 -21 33 -21 146 0 148 -6 161 -80 157 -102 -6 -147 -21
-160 -55 -3 -9 -6 -4 -6 12 -2 45 -40 53 -159 33 -42 -7 -82 -36 -82 -60 0 -8
10 -24 23 -35 19 -18 23 -34 27 -111 3 -49 3 -89 0 -89 -11 0 -56 35 -75 60
-11 13 -48 59 -82 100 -35 41 -63 81 -63 89 0 17 80 92 91 85 15 -9 60 8 70
28 15 27 3 65 -23 79 -34 18 -171 20 -205 2 -15 -8 -30 -19 -34 -25 -4 -6 -14
-3 -28 11 -11 11 -29 22 -38 23 -56 4 -132 3 -161 -3z m228 -90 c0 -7 -10 -28
-22 -47 -27 -44 -38 -23 -13 25 18 33 35 43 35 22z m543 -166 c11 -14 15 -37
14 -93 -2 -68 -4 -75 -22 -75 -18 0 -20 7 -22 93 -1 50 1 92 6 92 4 0 15 -8
24 -17z m1745 -10 c2 -8 -6 -13 -22 -13 -25 0 -33 10 -19 24 10 10 36 3 41
-11z m-1213 -117 c0 -47 -5 -79 -14 -90 -24 -29 -40 8 -41 95 0 83 13 110 39
84 11 -11 16 -36 16 -89z m500 82 c12 -31 8 -148 -5 -168 -9 -13 -12 -12 -25
4 -15 20 -21 128 -9 160 7 19 33 21 39 4z m501 -161 c5 -8 2 -7 -9 2 -11 9
-17 27 -16 55 l1 41 9 -43 c4 -23 11 -48 15 -55z m324 73 c0 -7 -77 -40 -93
-40 -15 0 -57 28 -57 38 0 4 34 7 75 7 41 0 75 -2 75 -5z"/>
<path d="M970 1570 c0 -40 3 -71 6 -68 7 8 7 128 0 136 -4 3 -6 -28 -6 -68z"/>
<path d="M1481 1538 c-1 -43 3 -78 7 -78 12 0 15 102 3 130 -8 20 -10 9 -10
-52z"/>
<path d="M1991 1526 c-1 -38 1 -67 3 -65 9 9 13 94 5 114 -5 13 -8 -5 -8 -49z"/>
<path d="M1200 1830 c0 -5 -10 -19 -22 -30 l-23 -21 23 -6 c30 -7 38 -44 36
-172 -1 -97 5 -131 26 -131 5 0 9 63 9 141 2 137 1 142 -23 165 -15 16 -22 32
-19 44 3 11 3 20 -1 20 -3 0 -6 -4 -6 -10z"/>
<path d="M1727 1581 c1 -25 2 -63 2 -84 1 -26 5 -37 13 -35 9 3 13 27 14 69 1
72 -2 85 -20 92 -8 3 -11 -9 -9 -42z"/>
<path d="M710 1552 l-21 -17 25 -24 c14 -14 26 -20 27 -15 4 47 3 74 -2 74 -4
0 -17 -8 -29 -18z"/>
<path d="M400 1325 c-47 -35 -92 -70 -100 -77 -8 -7 -37 -31 -65 -52 -27 -22
-52 -42 -55 -45 -3 -4 -30 -26 -60 -51 -127 -104 -134 -114 -104 -144 21 -22
25 -21 81 18 46 31 51 33 76 19 15 -7 27 -18 27 -23 0 -22 41 -20 73 4 43 33
57 33 92 -4 25 -26 33 -29 66 -24 31 5 40 3 50 -14 12 -19 14 -19 55 -4 39 14
44 14 68 -1 29 -19 34 -48 11 -67 -21 -18 -19 -29 10 -40 29 -11 31 -19 11
-45 -17 -23 -10 -52 16 -66 16 -8 31 -1 91 43 71 52 88 66 130 101 11 10 61
43 110 74 49 31 84 59 79 62 -6 3 -13 24 -16 45 -4 22 -10 44 -14 50 -5 6 -7
21 -6 34 1 12 2 34 3 49 0 14 3 24 5 22 4 -4 8 -26 21 -137 6 -47 10 -53 28
-50 13 2 24 13 28 28 l7 25 2 -25 c1 -23 2 -23 10 -5 5 13 4 24 -4 30 -9 8 -9
25 0 75 6 36 12 54 14 40 5 -67 4 -88 -2 -83 -5 2 -8 -1 -8 -6 0 -6 4 -11 9
-11 4 0 8 -8 8 -17 0 -50 3 -54 31 -51 25 3 27 5 24 48 -2 33 0 41 7 30 8 -11
11 -11 11 -2 0 7 -6 15 -13 18 -9 3 -15 26 -16 70 -2 72 -16 119 -31 109 -5
-3 -10 -2 -10 4 0 5 9 9 20 8 20 -1 27 -25 33 -124 3 -46 17 -72 17 -31 0 42
37 66 100 65 38 0 59 -6 67 -16 12 -16 15 0 16 97 0 21 6 25 42 25 30 0 33 -4
33 -39 0 -19 2 -37 5 -40 5 -6 107 37 207 88 44 23 63 36 45 32 -74 -15 -182
-16 -216 -2 -29 13 -39 13 -69 0 -45 -18 -178 -12 -212 10 -21 14 -27 14 -53
1 -40 -21 -150 -29 -179 -13 -18 9 -29 9 -44 1 -31 -17 -103 -13 -142 7 -32
16 -38 16 -68 2 -24 -12 -59 -16 -125 -14 -85 1 -92 3 -113 28 -13 14 -24 26
-26 26 -2 0 -41 -29 -88 -65z m306 -70 c-2 -40 0 -45 15 -40 11 4 26 -2 38
-14 l21 -21 0 22 c0 38 11 11 14 -34 1 -23 -2 -49 -8 -57 -7 -10 -7 -13 -1 -9
6 4 12 -2 12 -13 1 -10 -3 -19 -8 -19 -6 0 -7 -4 -4 -10 3 -5 17 -10 29 -10
21 0 23 4 23 51 0 37 5 54 17 61 24 13 20 38 -5 35 -12 -1 -23 3 -26 8 -2 6 9
10 24 10 24 -1 28 -6 31 -34 2 -22 -1 -31 -10 -29 -9 2 -14 -13 -16 -54 l-3
-58 -142 0 -142 0 0 120 c0 117 0 121 22 126 13 4 30 4 38 0 8 -3 15 -1 15 4
0 6 16 10 34 10 l35 0 -3 -45z m369 -7 c4 -22 9 -38 11 -36 3 4 12 43 13 63 1
14 41 17 41 4 0 -6 -5 -7 -10 -4 -17 10 -37 -60 -39 -134 -1 -51 -8 -34 -16
39 -10 92 -17 102 -67 95 -23 -4 -38 -2 -34 3 3 5 26 9 50 9 44 0 45 0 51 -39z
m-98 -110 c-5 -60 -14 -108 -19 -108 -5 0 -7 8 -4 18 5 18 15 113 18 174 1 21
5 35 8 30 4 -4 2 -55 -3 -114z m-535 -27 c14 -2 19 -42 8 -56 -21 -25 -59 -19
-66 10 -7 30 10 54 34 50 9 -2 20 -4 24 -4z m104 -23 c4 -13 -1 -27 -13 -39
-17 -17 -20 -18 -41 -3 -12 8 -22 21 -22 27 0 7 7 4 15 -6 14 -20 46 -20 52
-1 2 7 -4 19 -13 28 -12 13 -19 14 -30 5 -9 -7 -14 -8 -14 -1 0 28 56 19 66
-10z m-186 7 c9 -10 9 -15 1 -15 -6 0 -11 5 -11 10 0 16 -40 11 -47 -6 -9 -25
14 -41 38 -26 25 16 36 10 14 -8 -23 -19 -65 -4 -65 24 0 12 3 26 7 29 12 12
50 7 63 -8z m670 -59 c0 -47 -11 -56 -57 -48 -23 4 -33 32 -12 32 5 0 7 -4 4
-10 -4 -6 7 -10 24 -10 29 0 31 2 31 40 0 22 2 40 5 40 3 0 5 -20 5 -44z"/>
<path d="M650 1170 c0 -113 1 -120 20 -120 12 0 21 7 21 18 1 9 2 26 3 37 0
11 4 25 9 32 4 6 2 13 -5 15 -9 3 -9 6 0 12 21 13 33 -36 14 -57 -13 -15 -13
-18 -2 -15 8 2 14 -5 15 -17 0 -13 8 -21 23 -23 20 -3 23 0 17 17 -5 17 -3 20
12 15 11 -4 14 -3 6 3 -16 12 -24 71 -10 77 9 3 8 5 0 5 -7 1 -13 8 -13 16 0
8 -6 16 -12 16 -18 2 -21 1 -39 -6 -13 -5 -16 1 -14 32 3 49 -3 63 -26 63 -18
0 -19 -9 -19 -120z"/>
<path d="M577 1265 c-3 -9 -1 -179 2 -205 1 -12 61 -10 61 2 0 4 -4 8 -10 8
-6 0 -10 41 -10 104 0 98 -1 105 -20 103 -11 -1 -21 -6 -23 -12z"/>
<path d="M632 1250 c0 -14 2 -19 5 -12 2 6 2 18 0 25 -3 6 -5 1 -5 -13z"/>
<path d="M632 1195 c0 -16 2 -22 5 -12 2 9 2 23 0 30 -3 6 -5 -1 -5 -18z"/>
<path d="M632 1135 c0 -16 2 -22 5 -12 2 9 2 23 0 30 -3 6 -5 -1 -5 -18z"/>
<path d="M406 1097 c-21 -16 -16 -47 7 -47 25 0 38 24 24 44 -11 14 -15 15
-31 3z"/>
<path d="M1422 1286 c-4 -6 -8 -72 -8 -146 l1 -135 26 -3 26 -3 0 145 c0 130
-2 145 -18 149 -10 3 -22 0 -27 -7z"/>
<path d="M1793 1145 l0 -145 29 0 c16 0 27 4 23 10 -3 5 7 3 22 -5 25 -13 30
-13 48 5 29 30 29 131 -1 161 -18 17 -25 19 -42 10 -27 -14 -31 -6 -28 57 2
50 1 52 -25 52 l-26 0 0 -145z m93 -48 c-3 -62 -31 -77 -41 -23 -8 42 10 83
30 66 7 -6 12 -25 11 -43z"/>
<path d="M2625 1148 l0 -143 29 -3 c20 -3 26 0 21 8 -4 7 4 5 17 -4 24 -15 27
-15 49 3 47 38 22 197 -28 176 -7 -3 -19 -7 -26 -10 -11 -5 -14 7 -12 55 1 58
0 60 -25 60 l-26 0 1 -142z m91 -67 c-6 -41 -12 -47 -29 -33 -17 14 -20 58 -6
85 11 20 12 20 26 1 9 -12 12 -32 9 -53z"/>
<path d="M2373 1263 c-7 -2 -13 -16 -13 -29 0 -19 5 -24 24 -24 30 0 40 24 20
45 -9 8 -16 15 -17 14 -1 0 -8 -3 -14 -6z"/>
<path d="M2149 1234 c-1 -2 -2 -13 -3 -24 0 -12 -7 -24 -14 -29 -17 -10 -17
-22 0 -32 8 -5 13 -31 13 -76 0 -66 1 -68 25 -68 24 0 25 3 26 57 0 31 6 69
14 83 10 19 11 28 2 37 -7 7 -12 22 -12 34 0 16 -6 22 -25 22 -14 0 -26 -2
-26 -4z"/>
<path d="M1246 1165 c-16 -24 -21 -90 -10 -133 8 -27 49 -40 77 -23 11 7 16 8
12 2 -4 -7 4 -11 19 -11 16 0 26 6 27 15 4 135 1 170 -17 170 -11 0 -24 -3
-31 -8 -6 -4 -14 -3 -18 3 -11 18 -42 11 -59 -15z m75 -89 c-9 -44 -34 -40
-42 7 -4 28 -2 43 9 54 14 13 17 13 27 -7 7 -13 9 -36 6 -54z"/>
<path d="M1543 1180 c-29 -12 -43 -40 -43 -89 0 -76 77 -123 124 -75 9 8 16
21 16 28 0 18 -33 16 -46 -3 -10 -13 -14 -13 -28 -2 -24 20 -20 43 7 41 12 -1
34 -2 49 -1 27 1 28 5 19 64 0 4 -10 16 -21 27 -21 21 -42 24 -77 10z m56 -49
c13 -23 7 -29 -24 -23 -26 5 -34 27 -12 35 21 9 26 7 36 -12z"/>
<path d="M1684 1181 c-5 -3 -8 -37 -8 -76 2 -107 1 -105 29 -105 24 0 25 2 25
64 0 56 3 66 20 71 13 4 20 15 20 31 0 28 -7 30 -32 7 -13 -12 -18 -13 -16 -4
3 14 -23 23 -38 12z"/>
<path d="M2002 1178 c-39 -19 -51 -118 -19 -156 21 -26 56 -33 88 -17 16 9 29
20 29 25 0 6 0 13 0 18 0 13 -24 9 -43 -7 -17 -14 -20 -14 -33 4 -17 23 -18
36 -1 34 6 -1 29 -1 50 0 34 1 37 3 37 31 0 35 -39 80 -67 79 -10 0 -28 -5
-41 -11z m58 -48 c10 -18 8 -20 -20 -20 -32 0 -38 8 -18 28 17 17 26 15 38 -8z"/>
<path d="M2245 1096 c0 -90 0 -91 25 -91 24 0 25 3 26 59 1 48 5 62 23 75 15
11 20 23 15 34 -5 14 -9 15 -21 5 -9 -7 -17 -8 -21 -2 -4 5 -16 9 -27 10 -19
1 -20 -5 -20 -90z"/>
<path d="M2360 1094 c0 -94 0 -94 25 -94 25 0 25 1 25 90 0 50 -3 90 -7 91 -5
0 -16 2 -25 4 -16 3 -18 -7 -18 -91z"/>
<path d="M2478 1170 c-72 -56 -16 -202 64 -171 29 11 54 39 44 49 -12 12 -40
8 -53 -8 -11 -13 -15 -13 -28 4 -20 26 -12 34 33 33 21 0 43 2 48 6 18 11 3
66 -24 87 -31 25 -53 25 -84 0z m62 -35 c14 -17 12 -22 -10 -25 -34 -5 -41 -1
-30 20 13 24 23 25 40 5z"/>
</g>
</svg>
