<svg id="visual" viewBox="0 0 900 675" width="900" height="675" xmlns="http://www.w3.org/2000/svg" xmlns:xlink="http://www.w3.org/1999/xlink" version="1.1"><rect x="0" y="0" width="900" height="675" fill="#fafafa"></rect><defs><linearGradient id="grad1_0" x1="25%" y1="0%" x2="100%" y2="100%"><stop offset="23.333333333333336%" stop-color="#257d46" stop-opacity="1"></stop><stop offset="76.66666666666666%" stop-color="#257d46" stop-opacity="1"></stop></linearGradient></defs><defs><linearGradient id="grad1_1" x1="25%" y1="0%" x2="100%" y2="100%"><stop offset="23.333333333333336%" stop-color="#257d46" stop-opacity="1"></stop><stop offset="76.66666666666666%" stop-color="#93bb9c" stop-opacity="1"></stop></linearGradient></defs><defs><linearGradient id="grad1_2" x1="25%" y1="0%" x2="100%" y2="100%"><stop offset="23.333333333333336%" stop-color="#fafafa" stop-opacity="1"></stop><stop offset="76.66666666666666%" stop-color="#93bb9c" stop-opacity="1"></stop></linearGradient></defs><defs><linearGradient id="grad2_0" x1="0%" y1="0%" x2="75%" y2="100%"><stop offset="23.333333333333336%" stop-color="#257d46" stop-opacity="1"></stop><stop offset="76.66666666666666%" stop-color="#257d46" stop-opacity="1"></stop></linearGradient></defs><defs><linearGradient id="grad2_1" x1="0%" y1="0%" x2="75%" y2="100%"><stop offset="23.333333333333336%" stop-color="#93bb9c" stop-opacity="1"></stop><stop offset="76.66666666666666%" stop-color="#257d46" stop-opacity="1"></stop></linearGradient></defs><defs><linearGradient id="grad2_2" x1="0%" y1="0%" x2="75%" y2="100%"><stop offset="23.333333333333336%" stop-color="#93bb9c" stop-opacity="1"></stop><stop offset="76.66666666666666%" stop-color="#fafafa" stop-opacity="1"></stop></linearGradient></defs><g transform="translate(900, 0)"><path d="M0 309.4C-32.2 272.5 -64.4 235.6 -86.9 209.7C-109.4 183.9 -122.3 169 -159.1 159.1C-195.9 149.2 -256.8 144.1 -285.8 118.4C-314.9 92.7 -312.1 46.3 -309.4 0L0 0Z" fill="#c6daca"></path><path d="M0 206.3C-21.5 181.7 -42.9 157.1 -57.9 139.8C-72.9 122.6 -81.5 112.7 -106.1 106.1C-130.6 99.4 -171.2 96.1 -190.6 78.9C-209.9 61.8 -208.1 30.9 -206.2 0L0 0Z" fill="#609c70"></path><path d="M0 103.1C-10.7 90.8 -21.5 78.5 -29 69.9C-36.5 61.3 -40.8 56.3 -53 53C-65.3 49.7 -85.6 48 -95.3 39.5C-105 30.9 -104 15.4 -103.1 0L0 0Z" fill="#257d46"></path></g><g transform="translate(0, 675)"><path d="M0 -309.4C21.8 -260.7 43.6 -212.1 84.6 -204.2C125.5 -196.3 185.6 -229.1 218.8 -218.8C251.9 -208.4 258.2 -155 268.8 -111.4C279.5 -67.7 294.4 -33.9 309.4 0L0 0Z" fill="#c6daca"></path><path d="M0 -206.2C14.5 -173.8 29.1 -141.4 56.4 -136.1C83.7 -130.8 123.7 -152.7 145.8 -145.8C168 -139 172.2 -103.3 179.2 -74.2C186.3 -45.1 196.3 -22.6 206.3 0L0 0Z" fill="#609c70"></path><path d="M0 -103.1C7.3 -86.9 14.5 -70.7 28.2 -68.1C41.8 -65.4 61.9 -76.4 72.9 -72.9C84 -69.5 86.1 -51.7 89.6 -37.1C93.2 -22.6 98.1 -11.3 103.1 0L0 0Z" fill="#257d46"></path></g></svg>