<svg id="visual" viewBox="0 0 1100 540" width="1100" height="540" xmlns="http://www.w3.org/2000/svg" xmlns:xlink="http://www.w3.org/1999/xlink" version="1.1"><rect x="0" y="0" width="1100" height="540" fill="#fafafa"></rect><defs><linearGradient id="grad1_0" x1="50.9%" y1="0%" x2="100%" y2="100%"><stop offset="9.259259259259256%" stop-color="#257d46" stop-opacity="1"></stop><stop offset="90.74074074074073%" stop-color="#257d46" stop-opacity="1"></stop></linearGradient></defs><defs><linearGradient id="grad1_1" x1="50.9%" y1="0%" x2="100%" y2="100%"><stop offset="9.259259259259256%" stop-color="#257d46" stop-opacity="1"></stop><stop offset="90.74074074074073%" stop-color="#93bb9c" stop-opacity="1"></stop></linearGradient></defs><defs><linearGradient id="grad1_2" x1="50.9%" y1="0%" x2="100%" y2="100%"><stop offset="9.259259259259256%" stop-color="#fafafa" stop-opacity="1"></stop><stop offset="90.74074074074073%" stop-color="#93bb9c" stop-opacity="1"></stop></linearGradient></defs><defs><linearGradient id="grad2_0" x1="0%" y1="0%" x2="49.1%" y2="100%"><stop offset="9.259259259259256%" stop-color="#257d46" stop-opacity="1"></stop><stop offset="90.74074074074073%" stop-color="#257d46" stop-opacity="1"></stop></linearGradient></defs><defs><linearGradient id="grad2_1" x1="0%" y1="0%" x2="49.1%" y2="100%"><stop offset="9.259259259259256%" stop-color="#93bb9c" stop-opacity="1"></stop><stop offset="90.74074074074073%" stop-color="#257d46" stop-opacity="1"></stop></linearGradient></defs><defs><linearGradient id="grad2_2" x1="0%" y1="0%" x2="49.1%" y2="100%"><stop offset="9.259259259259256%" stop-color="#93bb9c" stop-opacity="1"></stop><stop offset="90.74074074074073%" stop-color="#fafafa" stop-opacity="1"></stop></linearGradient></defs><g transform="translate(1100, 0)"><path d="M0 297C-27.7 259.6 -55.4 222.1 -85 205.1C-114.5 188.1 -146 191.5 -181 181C-216 170.5 -254.5 146.1 -274.4 113.7C-294.3 81.2 -295.7 40.6 -297 0L0 0Z" fill="#c6daca"></path><path d="M0 198C-18.5 173 -36.9 148.1 -56.6 136.7C-76.4 125.4 -97.4 127.7 -120.7 120.7C-144 113.7 -169.7 97.4 -182.9 75.8C-196.2 54.1 -197.1 27.1 -198 0L0 0Z" fill="#609c70"></path><path d="M0 99C-9.2 86.5 -18.5 74 -28.3 68.4C-38.2 62.7 -48.7 63.8 -60.3 60.3C-72 56.8 -84.8 48.7 -91.5 37.9C-98.1 27.1 -98.6 13.5 -99 0L0 0Z" fill="#257d46"></path></g><g transform="translate(0, 540)"><path d="M0 -297C41.8 -297.3 83.7 -297.6 113.7 -274.4C143.6 -251.2 161.7 -204.5 167.6 -167.6C173.5 -130.7 167.1 -103.6 186.6 -77.3C206.2 -51 251.6 -25.5 297 0L0 0Z" fill="#c6daca"></path><path d="M0 -198C27.9 -198.2 55.8 -198.4 75.8 -182.9C95.8 -167.5 107.8 -136.3 111.7 -111.7C115.6 -87.1 111.4 -69.1 124.4 -51.5C137.4 -34 167.7 -17 198 0L0 0Z" fill="#609c70"></path><path d="M0 -99C13.9 -99.1 27.9 -99.2 37.9 -91.5C47.9 -83.7 53.9 -68.2 55.9 -55.9C57.8 -43.6 55.7 -34.5 62.2 -25.8C68.7 -17 83.9 -8.5 99 0L0 0Z" fill="#257d46"></path></g></svg>