<svg id="visual" viewBox="0 0 540 960" width="540" height="960" xmlns="http://www.w3.org/2000/svg" xmlns:xlink="http://www.w3.org/1999/xlink" version="1.1"><rect x="0" y="0" width="540" height="960" fill="#fafafa"></rect><defs><linearGradient id="grad1_0" x1="0%" y1="0%" x2="100%" y2="100%"><stop offset="30%" stop-color="#027f3f" stop-opacity="1"></stop><stop offset="70%" stop-color="#027f3f" stop-opacity="1"></stop></linearGradient></defs><defs><linearGradient id="grad1_1" x1="0%" y1="0%" x2="100%" y2="100%"><stop offset="30%" stop-color="#027f3f" stop-opacity="1"></stop><stop offset="70%" stop-color="#8ebc98" stop-opacity="1"></stop></linearGradient></defs><defs><linearGradient id="grad1_2" x1="0%" y1="0%" x2="100%" y2="100%"><stop offset="30%" stop-color="#fafafa" stop-opacity="1"></stop><stop offset="70%" stop-color="#8ebc98" stop-opacity="1"></stop></linearGradient></defs><defs><linearGradient id="grad2_0" x1="0%" y1="0%" x2="100%" y2="100%"><stop offset="30%" stop-color="#027f3f" stop-opacity="1"></stop><stop offset="70%" stop-color="#027f3f" stop-opacity="1"></stop></linearGradient></defs><defs><linearGradient id="grad2_1" x1="0%" y1="0%" x2="100%" y2="100%"><stop offset="30%" stop-color="#8ebc98" stop-opacity="1"></stop><stop offset="70%" stop-color="#027f3f" stop-opacity="1"></stop></linearGradient></defs><defs><linearGradient id="grad2_2" x1="0%" y1="0%" x2="100%" y2="100%"><stop offset="30%" stop-color="#8ebc98" stop-opacity="1"></stop><stop offset="70%" stop-color="#fafafa" stop-opacity="1"></stop></linearGradient></defs><g transform="translate(540, 0)"><path d="M0 305C-43.1 308.9 -86.2 312.8 -124 299.3C-161.8 285.9 -194.2 255.1 -223.4 223.4C-252.7 191.7 -278.9 159.1 -293.8 121.7C-308.7 84.3 -312.3 42.1 -316 0L0 0Z" fill="#c4dbc8"></path><path d="M0 203.3C-28.7 205.9 -57.5 208.5 -82.7 199.6C-107.8 190.6 -129.4 170.1 -149 149C-168.5 127.8 -185.9 106.1 -195.9 81.1C-205.8 56.2 -208.2 28.1 -210.7 0L0 0Z" fill="#579e6b"></path><path d="M0 101.7C-14.4 103 -28.7 104.3 -41.3 99.8C-53.9 95.3 -64.7 85 -74.5 74.5C-84.2 63.9 -93 53 -97.9 40.6C-102.9 28.1 -104.1 14 -105.3 0L0 0Z" fill="#027f3f"></path></g><g transform="translate(0, 960)"><path d="M0 -293C45 -303.1 90.1 -313.1 123.2 -297.5C156.4 -281.8 177.7 -240.5 209.3 -209.3C240.9 -178.1 282.8 -157.2 299.3 -124C315.8 -90.8 306.9 -45.4 298 0L0 0Z" fill="#c4dbc8"></path><path d="M0 -195.3C30 -202 60 -208.8 82.1 -198.3C104.3 -187.9 118.5 -160.3 139.5 -139.5C160.6 -118.8 188.6 -104.8 199.6 -82.7C210.6 -60.5 204.6 -30.3 198.7 0L0 0Z" fill="#579e6b"></path><path d="M0 -97.7C15 -101 30 -104.4 41.1 -99.2C52.1 -93.9 59.2 -80.2 69.8 -69.8C80.3 -59.4 94.3 -52.4 99.8 -41.3C105.3 -30.3 102.3 -15.1 99.3 0L0 0Z" fill="#027f3f"></path></g></svg>