<svg id="visual" viewBox="0 0 1100 600" width="1100" height="600" xmlns="http://www.w3.org/2000/svg" xmlns:xlink="http://www.w3.org/1999/xlink" version="1.1"><rect x="0" y="0" width="1100" height="600" fill="#fafafa"></rect><defs><linearGradient id="grad1_0" x1="45.5%" y1="0%" x2="100%" y2="100%"><stop offset="13.333333333333334%" stop-color="#027f3f" stop-opacity="1"></stop><stop offset="86.66666666666667%" stop-color="#027f3f" stop-opacity="1"></stop></linearGradient></defs><defs><linearGradient id="grad1_1" x1="45.5%" y1="0%" x2="100%" y2="100%"><stop offset="13.333333333333334%" stop-color="#027f3f" stop-opacity="1"></stop><stop offset="86.66666666666667%" stop-color="#8ebc98" stop-opacity="1"></stop></linearGradient></defs><defs><linearGradient id="grad1_2" x1="45.5%" y1="0%" x2="100%" y2="100%"><stop offset="13.333333333333334%" stop-color="#fafafa" stop-opacity="1"></stop><stop offset="86.66666666666667%" stop-color="#8ebc98" stop-opacity="1"></stop></linearGradient></defs><defs><linearGradient id="grad2_0" x1="0%" y1="0%" x2="54.5%" y2="100%"><stop offset="13.333333333333334%" stop-color="#027f3f" stop-opacity="1"></stop><stop offset="86.66666666666667%" stop-color="#027f3f" stop-opacity="1"></stop></linearGradient></defs><defs><linearGradient id="grad2_1" x1="0%" y1="0%" x2="54.5%" y2="100%"><stop offset="13.333333333333334%" stop-color="#8ebc98" stop-opacity="1"></stop><stop offset="86.66666666666667%" stop-color="#027f3f" stop-opacity="1"></stop></linearGradient></defs><defs><linearGradient id="grad2_2" x1="0%" y1="0%" x2="54.5%" y2="100%"><stop offset="13.333333333333334%" stop-color="#8ebc98" stop-opacity="1"></stop><stop offset="86.66666666666667%" stop-color="#fafafa" stop-opacity="1"></stop></linearGradient></defs><g transform="translate(1100, 0)"><path d="M0 349C-43.7 339.7 -87.3 330.5 -131.3 316.9C-175.2 303.3 -219.4 285.4 -254.6 254.6C-289.7 223.7 -315.8 180 -327.1 135.5C-338.3 90.9 -334.6 45.4 -331 0L0 0Z" fill="#c4dbc8"></path><path d="M0 232.7C-29.1 226.5 -58.2 220.3 -87.5 211.3C-116.8 202.2 -146.3 190.2 -169.7 169.7C-193.1 149.2 -210.5 120 -218 90.3C-225.5 60.6 -223.1 30.3 -220.7 0L0 0Z" fill="#579e6b"></path><path d="M0 116.3C-14.6 113.2 -29.1 110.2 -43.8 105.6C-58.4 101.1 -73.1 95.1 -84.9 84.9C-96.6 74.6 -105.3 60 -109 45.2C-112.8 30.3 -111.5 15.1 -110.3 0L0 0Z" fill="#027f3f"></path></g><g transform="translate(0, 600)"><path d="M0 -360C41.4 -340.5 82.7 -321 126.3 -304.9C169.9 -288.7 215.6 -275.9 246.8 -246.8C277.9 -217.7 294.5 -172.4 310.4 -128.6C326.4 -84.7 341.7 -42.4 357 0L0 0Z" fill="#c4dbc8"></path><path d="M0 -240C27.6 -227 55.1 -214 84.2 -203.3C113.2 -192.5 143.7 -183.9 164.5 -164.5C185.3 -145.1 196.3 -114.9 206.9 -85.7C217.6 -56.5 227.8 -28.2 238 0L0 0Z" fill="#579e6b"></path><path d="M0 -120C13.8 -113.5 27.6 -107 42.1 -101.6C56.6 -96.2 71.9 -92 82.3 -82.3C92.6 -72.6 98.2 -57.5 103.5 -42.9C108.8 -28.2 113.9 -14.1 119 0L0 0Z" fill="#027f3f"></path></g></svg>