<svg id="visual" viewBox="0 0 540 960" width="540" height="960" xmlns="http://www.w3.org/2000/svg" xmlns:xlink="http://www.w3.org/1999/xlink" version="1.1"><rect x="0" y="0" width="540" height="960" fill="#fafafa"></rect><defs><linearGradient id="grad1_0" x1="0%" y1="0%" x2="100%" y2="100%"><stop offset="30%" stop-color="#257d46" stop-opacity="1"></stop><stop offset="70%" stop-color="#257d46" stop-opacity="1"></stop></linearGradient></defs><defs><linearGradient id="grad1_1" x1="0%" y1="0%" x2="100%" y2="100%"><stop offset="30%" stop-color="#257d46" stop-opacity="1"></stop><stop offset="70%" stop-color="#93bb9c" stop-opacity="1"></stop></linearGradient></defs><defs><linearGradient id="grad1_2" x1="0%" y1="0%" x2="100%" y2="100%"><stop offset="30%" stop-color="#fafafa" stop-opacity="1"></stop><stop offset="70%" stop-color="#93bb9c" stop-opacity="1"></stop></linearGradient></defs><defs><linearGradient id="grad2_0" x1="0%" y1="0%" x2="100%" y2="100%"><stop offset="30%" stop-color="#257d46" stop-opacity="1"></stop><stop offset="70%" stop-color="#257d46" stop-opacity="1"></stop></linearGradient></defs><defs><linearGradient id="grad2_1" x1="0%" y1="0%" x2="100%" y2="100%"><stop offset="30%" stop-color="#93bb9c" stop-opacity="1"></stop><stop offset="70%" stop-color="#257d46" stop-opacity="1"></stop></linearGradient></defs><defs><linearGradient id="grad2_2" x1="0%" y1="0%" x2="100%" y2="100%"><stop offset="30%" stop-color="#93bb9c" stop-opacity="1"></stop><stop offset="70%" stop-color="#fafafa" stop-opacity="1"></stop></linearGradient></defs><g transform="translate(540, 0)"><path d="M0 297C-42.5 293 -85 288.9 -109.4 264.2C-133.9 239.6 -140.1 194.3 -169 169C-197.9 143.7 -249.3 138.5 -274.4 113.7C-299.5 88.8 -298.2 44.4 -297 0L0 0Z" fill="#c6daca"></path><path d="M0 198C-28.3 195.3 -56.7 192.6 -73 176.2C-89.2 159.7 -93.4 129.5 -112.7 112.7C-131.9 95.8 -166.2 92.3 -182.9 75.8C-199.7 59.2 -198.8 29.6 -198 0L0 0Z" fill="#609c70"></path><path d="M0 99C-14.2 97.7 -28.3 96.3 -36.5 88.1C-44.6 79.9 -46.7 64.8 -56.3 56.3C-66 47.9 -83.1 46.2 -91.5 37.9C-99.8 29.6 -99.4 14.8 -99 0L0 0Z" fill="#257d46"></path></g><g transform="translate(0, 960)"><path d="M0 -297C27.3 -265.6 54.6 -234.2 93 -224.5C131.4 -214.9 181 -227 210 -210C239.1 -193 247.6 -147 258.7 -107.2C269.8 -67.3 283.4 -33.7 297 0L0 0Z" fill="#c6daca"></path><path d="M0 -198C18.2 -177.1 36.4 -156.1 62 -149.7C87.6 -143.2 120.6 -151.3 140 -140C159.4 -128.7 165.1 -98 172.5 -71.4C179.8 -44.9 188.9 -22.4 198 0L0 0Z" fill="#609c70"></path><path d="M0 -99C9.1 -88.5 18.2 -78.1 31 -74.8C43.8 -71.6 60.3 -75.7 70 -70C79.7 -64.3 82.5 -49 86.2 -35.7C89.9 -22.4 94.5 -11.2 99 0L0 0Z" fill="#257d46"></path></g></svg>