<svg id="visual" viewBox="0 0 3840 2160" width="3840" height="2160" xmlns="http://www.w3.org/2000/svg" xmlns:xlink="http://www.w3.org/1999/xlink" version="1.1"><rect x="0" y="0" width="3840" height="2160" fill="#fafafa"></rect><defs><linearGradient id="grad1_0" x1="43.8%" y1="0%" x2="100%" y2="100%"><stop offset="14.444444444444446%" stop-color="#257d46" stop-opacity="1"></stop><stop offset="85.55555555555554%" stop-color="#257d46" stop-opacity="1"></stop></linearGradient></defs><defs><linearGradient id="grad1_1" x1="43.8%" y1="0%" x2="100%" y2="100%"><stop offset="14.444444444444446%" stop-color="#257d46" stop-opacity="1"></stop><stop offset="85.55555555555554%" stop-color="#93bb9c" stop-opacity="1"></stop></linearGradient></defs><defs><linearGradient id="grad1_2" x1="43.8%" y1="0%" x2="100%" y2="100%"><stop offset="14.444444444444446%" stop-color="#fafafa" stop-opacity="1"></stop><stop offset="85.55555555555554%" stop-color="#93bb9c" stop-opacity="1"></stop></linearGradient></defs><defs><linearGradient id="grad2_0" x1="0%" y1="0%" x2="56.3%" y2="100%"><stop offset="14.444444444444446%" stop-color="#257d46" stop-opacity="1"></stop><stop offset="85.55555555555554%" stop-color="#257d46" stop-opacity="1"></stop></linearGradient></defs><defs><linearGradient id="grad2_1" x1="0%" y1="0%" x2="56.3%" y2="100%"><stop offset="14.444444444444446%" stop-color="#93bb9c" stop-opacity="1"></stop><stop offset="85.55555555555554%" stop-color="#257d46" stop-opacity="1"></stop></linearGradient></defs><defs><linearGradient id="grad2_2" x1="0%" y1="0%" x2="56.3%" y2="100%"><stop offset="14.444444444444446%" stop-color="#93bb9c" stop-opacity="1"></stop><stop offset="85.55555555555554%" stop-color="#fafafa" stop-opacity="1"></stop></linearGradient></defs><g transform="translate(3840, 0)"><path d="M0 1188C-108.1 1033.3 -216.2 878.5 -336.8 813C-457.4 747.5 -590.4 771.2 -731.1 731.1C-871.9 691.1 -1020.2 587.1 -1097.6 454.6C-1175 322.1 -1181.5 161.1 -1188 0L0 0Z" fill="#c6daca"></path><path d="M0 792C-72.1 688.8 -144.1 585.7 -224.5 542C-304.9 498.3 -393.6 514.2 -487.4 487.4C-581.2 460.7 -680.1 391.4 -731.7 303.1C-783.3 214.8 -787.7 107.4 -792 0L0 0Z" fill="#609c70"></path><path d="M0 396C-36 344.4 -72.1 292.8 -112.3 271C-152.5 249.2 -196.8 257.1 -243.7 243.7C-290.6 230.4 -340.1 195.7 -365.9 151.5C-391.7 107.4 -393.8 53.7 -396 0L0 0Z" fill="#257d46"></path></g><g transform="translate(0, 2160)"><path d="M0 -1188C162.7 -1181 325.4 -1174.1 454.6 -1097.6C583.8 -1021 679.5 -875 744.6 -744.6C809.6 -614.2 844 -499.6 912.8 -378.1C981.6 -256.6 1084.8 -128.3 1188 0L0 0Z" fill="#c6daca"></path><path d="M0 -792C108.5 -787.4 216.9 -782.7 303.1 -731.7C389.2 -680.7 453 -583.3 496.4 -496.4C539.7 -409.5 562.7 -333 608.5 -252.1C654.4 -171.1 723.2 -85.5 792 0L0 0Z" fill="#609c70"></path><path d="M0 -396C54.2 -393.7 108.5 -391.4 151.5 -365.9C194.6 -340.3 226.5 -291.7 248.2 -248.2C269.9 -204.7 281.3 -166.5 304.3 -126C327.2 -85.5 361.6 -42.8 396 0L0 0Z" fill="#257d46"></path></g></svg>