<?xml version="1.0" encoding="UTF-8"?><svg id="Ebene_2" xmlns="http://www.w3.org/2000/svg" viewBox="0 0 149.49 30.47"><g id="Ebene_1-2"><polygon points="0 30.15 30.15 30.15 30.15 0 0 0 0 30.15 0 30.15" fill="#e73331"/><path d="m2.31,7.04s.21.29,1.03.17c.25-.02.48-.08.55.19.15.67.34,1.35.34,1.35l.32,1.68s.13,1.07.25,1.58c.11.57.32,1.07.42,1.43.17.67.11.71.86.55.44-.1.48-.31.38-.97l-.19-1.24c-.08-.26-.15-.52-.21-.78.26-.07.53-.13.8-.15.4-.13.81-.22,1.22-.29.5-.04,1.55-.13,1.55-.13,0,0,.88.08,1.24.11.32.03.64.03.95,0,.02.21.15,1.26.15,1.26,0,0,.11,1.16.15,1.43.02.52.01,1.04-.04,1.56,0,0-.15,1.34-.5,1.68-.34.34-1.03.9-1.03.9,0,0-.97.99-1.34,1.49-.32.48-.59.98-.82,1.51,0,0-.76,1.34-.88,2.21-.08.55-.4,1.45-.5,2.21-.04.4-.1,1.01.17,1.18,1.32.88,1.62-.8,1.81-1.76.17-.92.57-1.74.92-2.58.21-.51,1.16-1.85,1.16-1.85,0,0,.8-.9,1.26-1.3.32-.29.55-.69.93-.78.31-.08.53-.17.76-.23.59-.18,1.22-.08,1.72.29.51.34,1.53,1.05,1.53,1.05.43.43.83.89,1.2,1.37.44.58.84,1.19,1.2,1.81.19.34.71,1.79.71,1.79,0,0,.31,1.43.38,1.79.08.36.53,1.26.76,1.3.26.08.55.06.8-.04.65-.19.65-1.05.46-1.91-.1-.36-.23-.72-.38-1.07,0,0-.23-.65-.32-.9-.31-.86-1.01-2.61-1.01-2.61,0,0-1.14-1.74-1.79-2.44-.32-.36-.66-.7-1.03-1.01-.71-.57-1.35-1.35-1.6-1.95-.12-.35-.21-.72-.27-1.09,0,0-.06-.48-.08-.74s.04-.61.02-.9c-.02-.55-.06-1.03-.08-1.41.71-.1.4-.11,1.76-.27.32-.04.99-.21,1.51-.11.36.06.95.21.95.21.32.15.63.33.92.53.31.24.54.55.67.92.25.61.59,1.43.57,2.23-.25.31-.76,1.01-.76,1.01,0,0-.42.34-.67.57-.13.13-.42.34-.27.5.25.27.78.59.92.51.32-.18.61-.39.88-.65,0,0,.59-.67.84-.95.48-.55.82-1.07,1.34-1.68.36-.42,1.05-1.32,1.05-1.32,0,0,.63-.8.86-1.18.24-.38.44-.78.61-1.2.19-.53.4-1.03.55-1.55.31-1.14-.11-1.62-.72-1.64-.31,0-1.01.4-1.01.4,0,0-.67.63-.9,1.07-.08.11-.21.44-.29.55-.44.59-.73.9-.53,1.01.38.23.82.25,1.16.46.1.06-.23.38-.46.8-.31.59-1.01,1.6-1.35,1.91-.19-.63-.21-1.28-.63-1.87-.19-.29-.4-.55-.61-.84-.28-.34-.59-.64-.94-.92-.4-.32-1.53-.51-2.39-.59-.63-.1-1.26-.16-1.89-.19-.32,0-.65-.04-.97-.02-.3.05-.61.07-.92.06-.17-.02-.36-.11-.36-.32,0-.53.06-.69.44-1.15.5-.57.63-.86.63-1.66,0-.44-.29-1.03-.69-1.56-.34-.46-.99-.71-1.77-.71-.35-.03-.71.07-.99.29-.22.14-.43.3-.63.48-.52.57-.76,2.44-.13,2.98.14.12.28.25.4.4.13.21.22.44.25.69,0,.32.06.61-.38.69l-1.89.06s-2.06.27-2.67.31c-.38,0-1.45.25-1.89.21-.21-.86-.42-1.56-.42-2,0-.15,0-.48.32-.53.21-.04.48-.06.76-.13.21-.04.44-.15.67-.19l-.06-.52s-.11-.46-.15-.59c-.08-.34-.08-.63-.27-.71-.23-.08-.63.11-1.32.21-.69.1-1.87.06-2.61.17-.67.1-.73.34-.73.63.03.24.08.48.15.71l.1.71h0Z" fill="#fff"/><path d="m37.72,0h3.96l1.35,7.49c.08.45.11.88.13,1.31h.06c.02-.43.06-.86.15-1.31L44.78,0h3.94l1.41,7.49c.09.45.13.88.15,1.31h.06c.02-.43.06-.86.13-1.31L51.82,0h3.96l-3.17,13.33h-4.3l-1.43-8.3c-.06-.36-.08-.73-.09-1.16h-.08c-.02.43-.04.81-.09,1.16l-1.43,8.3h-4.3L37.72,0Z"/><path d="m66.81,10.51v2.82h-9.72V0h9.59v2.82h-5.67v2.33h5.35v2.76h-5.35v2.61h5.8Z"/><path d="m68.38,0h3.88v10.17h4.96v3.15h-8.85V0Z"/><path d="m86.8,3.08h-3.68v10.25h-3.9V3.08h-3.68V0h11.26v3.08Z"/><path d="m91.77,0h5.82c4.09,0,6.74,2.65,6.74,6.55s-2.65,6.78-6.78,6.78h-5.78V0Zm5.59,10.53c1.93,0,2.93-1.84,2.93-3.98s-.9-3.75-2.89-3.75h-1.71v7.73h1.67Z"/><path d="m115.45,10.51v2.82h-9.72V0h9.59v2.82h-5.67v2.33h5.35v2.76h-5.35v2.61h5.8Z"/><path d="m122.47,8.45h-1.48v4.88h-3.92V0h6.36c3.32,0,5.12,1.48,5.12,4.2,0,1.71-.9,3.02-2.4,3.66l2.7,5.46h-4.21l-2.18-4.88Zm-1.48-2.53h1.56c1.24,0,1.91-.6,1.91-1.71s-.64-1.58-1.91-1.58h-1.56v3.29Z"/><path d="m49.98,26.36c0,2.31-1.75,3.79-4.6,3.79h-6.91v-13.33h6.76c2.78,0,4.43,1.22,4.43,3.36,0,1.48-.92,2.59-2.5,2.98,1.8.26,2.81,1.43,2.81,3.19Zm-7.58-6.91v2.68h1.52c.94,0,1.58-.47,1.58-1.37s-.64-1.31-1.58-1.31h-1.52Zm3.42,6.57c0-.92-.68-1.45-1.73-1.45h-1.69v2.95h1.69c1.09,0,1.73-.58,1.73-1.5Z"/><path d="m59.91,27.42h-4.58l-.84,2.72h-3.92l4.73-13.33h4.65l4.73,13.33h-3.92l-.84-2.72Zm-.81-2.63l-.88-2.89c-.23-.73-.45-1.52-.58-2.37h-.04c-.13.84-.36,1.63-.58,2.37l-.88,2.89h2.97Z"/><path d="m69.15,16.82v8.52c0,1.24.77,2.01,2.01,2.01s2.01-.77,2.01-2.01v-8.52h3.92v8.67c0,3.08-2.25,4.97-5.93,4.97s-5.93-1.9-5.93-4.97v-8.67h3.92Z"/><path d="m77.66,28.03l2.65-2.42c.92,1.22,2.18,1.86,3.62,1.86,1.18,0,1.91-.41,1.91-1.11s-.38-.96-1.61-1.22l-1.69-.38c-2.57-.56-3.87-1.97-3.87-4.19,0-2.53,2.1-4.07,5.5-4.07,2.23,0,4.19.69,5.52,2.01l-2.23,2.5c-.92-1.01-2.31-1.63-3.58-1.63-1.03,0-1.67.36-1.67.94,0,.62.43.92,1.8,1.22l1.91.43c2.53.56,3.64,1.8,3.64,4.04,0,2.78-2.2,4.47-5.78,4.47-2.59,0-4.84-.88-6.12-2.44Z"/><path d="m101.92,19.9h-3.7v10.25h-3.92v-10.25h-3.7v-3.08h11.32v3.08Z"/><path d="m102.38,23.48c0-4.28,2.67-6.98,6.83-6.98s6.83,2.7,6.83,6.98-2.67,6.98-6.83,6.98-6.83-2.7-6.83-6.98Zm9.65,0c0-2.5-1.05-3.96-2.82-3.96s-2.82,1.46-2.82,3.96,1.05,3.96,2.82,3.96,2.82-1.46,2.82-3.96Z"/><path d="m121.47,19.73v2.42h5.33v2.85h-5.33v5.14h-3.92v-13.33h9.59v2.91h-5.67Z"/><path d="m132.58,19.73v2.42h5.33v2.85h-5.33v5.14h-3.92v-13.33h9.59v2.91h-5.67Z"/><path d="m149.49,27.33v2.82h-9.72v-13.33h9.59v2.82h-5.67v2.33h5.35v2.76h-5.35v2.61h5.8Z"/></g></svg>